<svg width="428" height="926" viewBox="0 0 428 926" fill="none" xmlns="http://www.w3.org/2000/svg">
<g clip-path="url(#clip0_20_192)">
<rect width="428" height="926" fill="#EEF2FF"/>
<path d="M221.927 714.14C57.5742 523.907 -44.5629 671.731 -44.5629 671.731L-113 931.03L343.766 1011L575 872.263C575 872.263 386.28 904.373 221.927 714.14Z" fill="#E294D8" fill-opacity="0.3"/>
<path d="M99.2233 348.117C167.547 260.138 29.6503 270.154 0 174V486C51.5997 398.305 30.8995 436.095 99.2233 348.117Z" fill="url(#paint0_linear_20_192)"/>
<path d="M329.322 166.416C223.718 339.364 376.931 284.305 428 362.5L428 -1C367.446 116.139 434.926 -6.53217 329.322 166.416Z" fill="url(#paint1_linear_20_192)"/>
<path d="M299.991 708.044C65.282 782.78 -2.50002 693 -2.50002 693L-2.50003 934L219 934L431.5 934C431.5 934 534.7 633.308 299.991 708.044Z" fill="#E0ADF5" fill-opacity="0.5"/>
</g>
<defs>
<linearGradient id="paint0_linear_20_192" x1="-92.4106" y1="273.737" x2="170.469" y2="398.665" gradientUnits="userSpaceOnUse">
<stop stop-color="#BD00FF"/>
<stop offset="1" stop-color="#FF002E" stop-opacity="0"/>
</linearGradient>
<linearGradient id="paint1_linear_20_192" x1="554.21" y1="265.769" x2="232.177" y2="131.317" gradientUnits="userSpaceOnUse">
<stop stop-color="#BD00FF"/>
<stop offset="1" stop-color="#FF002E" stop-opacity="0"/>
</linearGradient>
<clipPath id="clip0_20_192">
<rect width="428" height="926" fill="white"/>
</clipPath>
</defs>
</svg>
